<?xml version="1.0" encoding="UTF-8" standalone="no" ?>
<svg xmlns="http://www.w3.org/2000/svg" width="313.738px" height="251.493px" viewBox="0 -2680.5 6064.2 4861" xmlns:xlink="http://www.w3.org/1999/xlink" style=""><defs><path id="MJX-43-NCM-N-394" d="M759 0C776 0 785 4 785 13L445 696C438 709 429 716 416 716C403 716 394 709 387 696L52 25C49 18 47 14 47 12C47 4 56 0 73 0M384 604L644 83L124 83Z"/><path id="MJX-43-NCM-N-2062" d=""/><path id="MJX-43-NCM-N-53" d="M252 669C359 669 422 601 440 466C441 456 447 451 456 451C467 451 472 460 472 478L472 677C472 696 467 705 458 705C452 705 446 700 440 690L408 638C364 680 324 705 251 705C142 705 56 617 56 509C56 417 116 349 187 324L317 292C384 275 428 229 428 154C428 79 376 17 301 17C170 17 93 91 88 218C88 227 83 232 73 232C62 232 56 223 56 204L56 6C56-13 61-22 71-22C77-22 83-17 89-7L121 45C164 0 224-22 302-22C359-22 407-1 444 40C481 81 499 130 499 188C499 235 485 278 458 317C431 356 394 380 349 391L223 422C170 434 127 481 127 544C127 614 182 669 252 669Z"/><path id="MJX-43-NCM-N-48" d="M566 3C640 3 690 2 716 0L716 39L688 39C653 39 632 41 625 46C618 51 614 63 614 81L614 602C614 620 618 631 625 636C632 641 653 644 688 644L716 644L716 683C690 681 640 680 567 680C492 680 442 681 417 683L417 644L444 644C479 644 500 641 507 636C514 631 518 620 518 602L518 375L231 375L231 602C231 620 235 631 242 636C249 641 270 644 305 644L332 644L332 683C307 681 257 680 183 680C109 680 59 681 33 683L33 644L61 644C96 644 117 641 124 636C131 631 135 620 135 602L135 81C135 63 131 51 124 46C117 41 96 39 61 39L33 39L33 0C59 2 109 3 182 3C257 3 307 2 332 0L332 39L305 39C270 39 249 41 242 46C235 51 231 63 231 81L231 336L518 336L518 81C518 63 514 51 507 46C500 41 479 39 444 39L417 39L417 0C442 2 492 3 566 3Z"/><path id="MJX-43-NCM-N-3D" d="M698 367L80 367C64 367 56 359 56 344C56 329 64 321 80 321L698 321C714 321 722 329 722 344C722 356 711 367 698 367M698 179L80 179C64 179 56 171 56 156C56 141 64 133 80 133L698 133C714 133 722 141 722 156C722 169 711 179 698 179Z"/><path id="MJX-43-NCM-N-4C" d="M230 74L230 601C230 614 231 622 233 627C238 638 267 644 320 644L356 644L356 683C330 681 274 680 187 680C110 680 59 681 33 683L33 644L61 644C96 644 117 641 124 636C131 631 135 620 135 602L135 81C135 63 131 51 124 46C117 41 96 39 61 39L33 39L33 0L554 0L582 263L550 263C545 212 536 171 525 139C503 76 444 39 355 39L274 39C236 39 230 39 230 74Z"/><path id="MJX-43-NCM-N-2B" d="M698 274L413 274L413 559C413 575 405 583 389 583C373 583 365 575 365 559L365 274L80 274C64 274 56 266 56 250C56 234 64 226 80 226L365 226L365-59C365-75 373-83 389-83C405-83 413-75 413-59L413 226L698 226C714 226 722 234 722 250C722 263 711 274 698 274Z"/><path id="MJX-43-NCM-I-1D462" d="M543 144C543 153 538 158 527 158C518 158 513 151 510 137C505 118 500 99 493 80C480 39 462 18 440 18C422 18 413 32 413 60C413 77 420 111 433 161L460 267C469 303 477 328 483 359L489 386C491 393 492 398 492 401C492 421 481 431 459 431C437 431 423 419 417 394L343 98C342 95 338 88 330 76C314 50 275 18 235 18C197 18 178 44 178 95C178 136 196 202 231 294C242 324 248 345 248 357C248 407 213 442 163 442C118 442 83 417 58 367C39 328 29 301 29 287C29 278 34 273 45 273C58 273 60 279 64 293C87 373 119 413 160 413C174 413 181 403 181 384C181 369 175 348 164 319C126 218 107 148 107 111C107 34 155-11 232-11C275-11 314 9 347 50C361 9 391-11 437-11C506-11 527 70 543 144Z"/><path id="MJX-43-NCM-I-1D713" d="M534 393C534 384 539 374 550 363C573 341 585 314 585 282C585 253 576 222 557 187C522 120 476 72 421 43C388 26 355 18 322 17L484 663C486 672 487 677 487 679C487 689 482 694 471 694C466 694 463 693 460 691C456 683 454 676 453 671L290 19C219 28 184 64 184 126C184 153 202 214 237 309C244 329 248 346 248 359C248 409 213 444 163 444C118 444 84 419 59 369C39 329 29 302 29 288C29 279 34 274 45 274C58 274 60 280 64 294C87 374 119 414 160 414C174 414 181 405 181 387C181 371 174 343 159 303C127 218 111 162 111 134C111 47 168-1 282-10C274-45 267-74 261-96C246-153 238-185 238-192C241-200 242-205 255-205L265-201C271-185 276-170 279-157L315-13C397-12 469 24 531 95C564 132 588 172 604 215C625 270 635 322 635 371C635 420 619 444 588 444C562 444 534 419 534 393Z"/><path id="MJX-43-NCM-I-1D454" d="M15-141C15-184 60-205 150-205C197-205 241-193 280-170C324-144 351-109 362-66L471 373C473 383 474 389 474 392C474 412 463 422 442 422C420 422 406 410 399 387C377 424 347 442 310 442C246 442 189 410 140 346C95 286 72 223 72 158C72 71 123-3 207-3C246-3 282 14 315 47L285-71C256-140 211-175 148-175C122-175 100-173 82-169C103-158 113-141 113-118C113-93 99-80 72-80C40-80 15-109 15-141M356 392C376 371 386 351 386 331C386 330 385 325 383 318L336 129C330 106 313 82 286 60C259 38 233 27 210 27C170 27 150 56 150 114C150 169 184 291 204 327C235 384 270 412 311 412C329 412 344 405 356 392Z"/></defs><g stroke="#000000" fill="#000000" stroke-width="0" transform="scale(1,-1)"><g data-mml-node="math" data-latex="\begin{align} \Delta \mathrm{SSH} = &amp;\Delta \mathrm{SL} \\ &amp;+ u \\&amp;+ {\psi\over g} \end{align}" data-semantic-structure="(30 (13 (7 (6 (4 0 3 1) 2 5)) (12 (11 8 10 9))) (20 14 (19 (18 16 17))) (29 21 (28 (27 23 (26 24 25)))))"><g data-mml-node="mtable" data-latex-item="{align}" data-latex="\begin{align} \Delta \mathrm{SSH} = &amp;\Delta \mathrm{SL} \\ &amp;+ u \\&amp;+ {\psi\over g} \end{align}" data-semantic-type="table" data-semantic-role="equality" data-semantic-annotation="depth:1" data-semantic-id="30" data-semantic-children="13,20,29" data-semantic-attributes="latex:\begin{align} \Delta \mathrm{SSH} = &amp;\Delta \mathrm{SL} \\ &amp;+ u \\&amp;+ {\psi\over g} \end{align}" data-semantic-owns="13 20 29" aria-level="0" data-speech-node="true"><g data-mml-node="mtr" data-semantic-type="row" data-semantic-role="table" data-semantic-annotation="depth:2" data-semantic-id="13" data-semantic-children="7,12" data-semantic-parent="30" data-semantic-owns="7 12" aria-level="1" data-speech-node="true" transform="translate(0,1930.5)"><g data-mml-node="mtd" data-semantic-type="cell" data-semantic-role="table" data-semantic-annotation="depth:3" data-semantic-id="7" data-semantic-children="6" data-semantic-parent="13" data-semantic-owns="6" aria-level="2" data-speech-node="true"><g data-mml-node="mrow" data-semantic-added="true" data-semantic-type="relseq" data-semantic-role="equality" data-semantic-annotation="depth:4" data-semantic-id="6" data-semantic-children="4,5" data-semantic-content="2" data-semantic-parent="7" data-semantic-owns="4 2 5" aria-level="3" data-speech-node="true"><g data-mml-node="mrow" data-semantic-added="true" data-semantic-type="infixop" data-semantic-role="implicit" data-semantic-annotation="clearspeak:unit;depth:5" data-semantic-id="4" data-semantic-children="0,1" data-semantic-content="3" data-semantic-parent="6" data-semantic-owns="0 3 1" aria-level="4" data-speech-node="true"><g data-mml-node="mi" data-latex="\Delta" data-semantic-type="identifier" data-semantic-role="greekletter" data-semantic-font="normal" data-semantic-annotation="clearspeak:simple;nemeth:number;depth:6" data-semantic-id="0" data-semantic-parent="4" data-semantic-attributes="latex:\Delta" aria-level="5" data-speech-node="true"><use data-c="394" xmlns:xlink="http://www.w3.org/1999/xlink" xlink:href="#MJX-43-NCM-N-394"/></g><g data-mml-node="mo" data-semantic-type="operator" data-semantic-role="multiplication" data-semantic-annotation="depth:6" data-semantic-id="3" data-semantic-parent="4" data-semantic-added="true" data-semantic-operator="infixop,⁢" aria-level="5" data-speech-node="true" transform="translate(833,0)"><use data-c="2062" xmlns:xlink="http://www.w3.org/1999/xlink" xlink:href="#MJX-43-NCM-N-2062"/></g><g data-mml-node="TeXAtom" data-mjx-texclass="ORD" data-latex="\mathrm{SSH}" transform="translate(833,0)"><g data-mml-node="mi" data-latex="SSH" data-semantic-type="identifier" data-semantic-role="unknown" data-semantic-font="normal" data-semantic-annotation="depth:6" data-semantic-id="1" data-semantic-parent="4" data-semantic-attributes="latex:\mathrm{SSH};texclass:ORD" aria-level="5" data-speech-node="true"><use data-c="53" xmlns:xlink="http://www.w3.org/1999/xlink" xlink:href="#MJX-43-NCM-N-53"/><use data-c="53" xmlns:xlink="http://www.w3.org/1999/xlink" xlink:href="#MJX-43-NCM-N-53" transform="translate(556,0)"/><use data-c="48" xmlns:xlink="http://www.w3.org/1999/xlink" xlink:href="#MJX-43-NCM-N-48" transform="translate(1112,0)"/></g></g></g><g data-mml-node="mo" data-latex="=" data-semantic-type="relation" data-semantic-role="equality" data-semantic-annotation="nemeth:number;depth:5" data-semantic-id="2" data-semantic-parent="6" data-semantic-attributes="latex:=" data-semantic-operator="relseq,=" aria-level="4" data-speech-node="true" transform="translate(2972.8,0)"><use data-c="3D" xmlns:xlink="http://www.w3.org/1999/xlink" xlink:href="#MJX-43-NCM-N-3D"/></g><g data-mml-node="mrow" data-semantic-added="true" data-semantic-type="empty" data-semantic-role="unknown" data-semantic-annotation="nemeth:number;depth:5" data-semantic-id="5" data-semantic-parent="6" aria-level="4" data-speech-node="true" transform="translate(3750.8,0)"/></g></g><g data-mml-node="mtd" data-semantic-type="cell" data-semantic-role="table" data-semantic-annotation="depth:3" data-semantic-id="12" data-semantic-children="11" data-semantic-parent="13" data-semantic-owns="11" aria-level="2" data-speech-node="true" transform="translate(3750.8,0)"><g data-mml-node="mstyle" data-semantic-type="infixop" data-semantic-role="implicit" data-semantic-annotation="clearspeak:unit;depth:4" data-semantic-id="11" data-semantic-children="8,9" data-semantic-content="10" data-semantic-parent="12" data-semantic-owns="8 10 9" aria-level="3" data-speech-node="true"><g data-mml-node="mi" data-latex="\Delta" data-semantic-type="identifier" data-semantic-role="greekletter" data-semantic-font="normal" data-semantic-annotation="clearspeak:simple;nemeth:number;depth:5" data-semantic-id="8" data-semantic-parent="11" data-semantic-attributes="latex:\Delta" aria-level="4" data-speech-node="true"><use data-c="394" xmlns:xlink="http://www.w3.org/1999/xlink" xlink:href="#MJX-43-NCM-N-394"/></g><g data-mml-node="mo" data-semantic-type="operator" data-semantic-role="multiplication" data-semantic-annotation="depth:5" data-semantic-id="10" data-semantic-parent="11" data-semantic-added="true" data-semantic-operator="infixop,⁢" aria-level="4" data-speech-node="true" transform="translate(833,0)"><use data-c="2062" xmlns:xlink="http://www.w3.org/1999/xlink" xlink:href="#MJX-43-NCM-N-2062"/></g><g data-mml-node="TeXAtom" data-mjx-texclass="ORD" data-latex="\mathrm{SL}" transform="translate(833,0)"><g data-mml-node="mi" data-latex="SL" data-semantic-type="identifier" data-semantic-role="unknown" data-semantic-font="normal" data-semantic-annotation="depth:5" data-semantic-id="9" data-semantic-parent="11" data-semantic-attributes="latex:\mathrm{SL};texclass:ORD" aria-level="4" data-speech-node="true"><use data-c="53" xmlns:xlink="http://www.w3.org/1999/xlink" xlink:href="#MJX-43-NCM-N-53"/><use data-c="4C" xmlns:xlink="http://www.w3.org/1999/xlink" xlink:href="#MJX-43-NCM-N-4C" transform="translate(556,0)"/></g></g></g></g></g><g data-mml-node="mtr" data-semantic-type="row" data-semantic-role="table" data-semantic-annotation="depth:2" data-semantic-id="20" data-semantic-children="14,19" data-semantic-parent="30" data-semantic-owns="14 19" aria-level="1" data-speech-node="true" transform="translate(0,630.5)"><g data-mml-node="mtd" data-semantic-type="cell" data-semantic-role="table" data-semantic-annotation="nemeth:number;depth:3" data-semantic-id="14" data-semantic-parent="20" aria-level="2" data-speech-node="true" transform="translate(3750.8,0)"/><g data-mml-node="mtd" data-semantic-type="cell" data-semantic-role="table" data-semantic-annotation="depth:3" data-semantic-id="19" data-semantic-children="18" data-semantic-parent="20" data-semantic-owns="18" aria-level="2" data-speech-node="true" transform="translate(3750.8,0)"><g data-mml-node="mstyle"><g data-mml-node="mi"/><g data-mml-node="mrow" data-semantic-added="true" data-semantic-type="prefixop" data-semantic-role="positive" data-semantic-annotation="depth:4" data-semantic-id="18" data-semantic-children="17" data-semantic-content="16" data-semantic-parent="19" data-semantic-owns="16 17" aria-level="3" data-speech-node="true" transform="translate(222.2,0)"><g data-mml-node="mo" data-latex="+" data-semantic-type="operator" data-semantic-role="addition" data-semantic-annotation="depth:5" data-semantic-id="16" data-semantic-parent="18" data-semantic-attributes="latex:+" data-semantic-operator="prefixop,+" aria-level="4" data-speech-node="true"><use data-c="2B" xmlns:xlink="http://www.w3.org/1999/xlink" xlink:href="#MJX-43-NCM-N-2B"/></g><g data-mml-node="mi" data-latex="u" data-semantic-type="identifier" data-semantic-role="latinletter" data-semantic-font="italic" data-semantic-annotation="clearspeak:simple;depth:5" data-semantic-id="17" data-semantic-parent="18" data-semantic-attributes="latex:u" aria-level="4" data-speech-node="true" transform="translate(1000.2,0)"><use data-c="1D462" xmlns:xlink="http://www.w3.org/1999/xlink" xlink:href="#MJX-43-NCM-I-1D462"/></g></g></g></g></g><g data-mml-node="mtr" data-semantic-type="row" data-semantic-role="table" data-semantic-annotation="depth:2" data-semantic-id="29" data-semantic-children="21,28" data-semantic-parent="30" data-semantic-owns="21 28" aria-level="1" data-speech-node="true" transform="translate(0,-1289.5)"><g data-mml-node="mtd" data-semantic-type="cell" data-semantic-role="table" data-semantic-annotation="nemeth:number;depth:3" data-semantic-id="21" data-semantic-parent="29" aria-level="2" data-speech-node="true" transform="translate(3750.8,0)"/><g data-mml-node="mtd" data-semantic-type="cell" data-semantic-role="table" data-semantic-annotation="depth:3" data-semantic-id="28" data-semantic-children="27" data-semantic-parent="29" data-semantic-owns="27" aria-level="2" data-speech-node="true" transform="translate(3750.8,0)"><g data-mml-node="mstyle"><g data-mml-node="mi"/><g data-mml-node="mrow" data-semantic-added="true" data-semantic-type="prefixop" data-semantic-role="positive" data-semantic-annotation="depth:4" data-semantic-id="27" data-semantic-children="26" data-semantic-content="23" data-semantic-parent="28" data-semantic-owns="23 26" aria-level="3" data-speech-node="true" transform="translate(222.2,0)"><g data-mml-node="mo" data-latex="+" data-semantic-type="operator" data-semantic-role="addition" data-semantic-annotation="depth:5" data-semantic-id="23" data-semantic-parent="27" data-semantic-attributes="latex:+" data-semantic-operator="prefixop,+" aria-level="4" data-speech-node="true"><use data-c="2B" xmlns:xlink="http://www.w3.org/1999/xlink" xlink:href="#MJX-43-NCM-N-2B"/></g><g data-mml-node="TeXAtom" data-mjx-texclass="ORD" data-latex="{}" transform="translate(1000.2,0)"><g data-mml-node="mfrac" data-latex-item="\over" data-semantic-type="fraction" data-semantic-role="division" data-semantic-annotation="depth:5" data-semantic-id="26" data-semantic-children="24,25" data-semantic-parent="27" data-semantic-attributes="latex:{};texclass:ORD" data-semantic-owns="24 25" aria-level="4" data-speech-node="true"><g data-mml-node="mi" data-latex="\psi" data-semantic-type="identifier" data-semantic-role="greekletter" data-semantic-font="italic" data-semantic-annotation="clearspeak:simple;depth:6" data-semantic-id="24" data-semantic-parent="26" data-semantic-attributes="latex:\psi" aria-level="5" data-speech-node="true" transform="translate(220,676)"><use data-c="1D713" xmlns:xlink="http://www.w3.org/1999/xlink" xlink:href="#MJX-43-NCM-I-1D713"/></g><g data-mml-node="mi" data-latex="g" data-semantic-type="identifier" data-semantic-role="simple function" data-semantic-font="italic" data-semantic-annotation="clearspeak:simple;depth:6" data-semantic-id="25" data-semantic-parent="26" data-semantic-attributes="latex:g" aria-level="5" data-speech-node="true" transform="translate(307,-686)"><use data-c="1D454" xmlns:xlink="http://www.w3.org/1999/xlink" xlink:href="#MJX-43-NCM-I-1D454"/></g><rect width="851" height="60" x="120" y="220"/></g></g></g></g></g></g></g></g></g></svg>